<mxfile host="Electron" agent="Mozilla/5.0 (Windows NT 10.0; Win64; x64) AppleWebKit/537.36 (KHTML, like Gecko) draw.io/26.0.9 Chrome/128.0.6613.186 Electron/32.2.5 Safari/537.36" version="26.0.9">
  <diagram id="C5RBs43oDa-KdzZeNtuy" name="Page-1">
    <mxGraphModel dx="1348" dy="613" grid="1" gridSize="10" guides="1" tooltips="1" connect="1" arrows="1" fold="1" page="1" pageScale="1" pageWidth="827" pageHeight="1169" math="0" shadow="0">
      <root>
        <mxCell id="WIyWlLk6GJQsqaUBKTNV-0" />
        <mxCell id="WIyWlLk6GJQsqaUBKTNV-1" parent="WIyWlLk6GJQsqaUBKTNV-0" />
        <mxCell id="VcwYlTKN-XmlWoADZdBP-0" value="Start" style="strokeWidth=2;html=1;shape=mxgraph.flowchart.start_2;whiteSpace=wrap;" vertex="1" parent="WIyWlLk6GJQsqaUBKTNV-1">
          <mxGeometry x="50" y="20" width="100" height="100" as="geometry" />
        </mxCell>
        <mxCell id="VcwYlTKN-XmlWoADZdBP-10" style="edgeStyle=orthogonalEdgeStyle;rounded=0;orthogonalLoop=1;jettySize=auto;html=1;entryX=0.5;entryY=0;entryDx=0;entryDy=0;" edge="1" parent="WIyWlLk6GJQsqaUBKTNV-1" source="VcwYlTKN-XmlWoADZdBP-1" target="VcwYlTKN-XmlWoADZdBP-2">
          <mxGeometry relative="1" as="geometry" />
        </mxCell>
        <mxCell id="VcwYlTKN-XmlWoADZdBP-1" value="What month is it? (1-12) :" style="shape=parallelogram;html=1;strokeWidth=2;perimeter=parallelogramPerimeter;whiteSpace=wrap;rounded=1;arcSize=12;size=0.23;" vertex="1" parent="WIyWlLk6GJQsqaUBKTNV-1">
          <mxGeometry x="-10" y="190" width="200" height="80" as="geometry" />
        </mxCell>
        <mxCell id="VcwYlTKN-XmlWoADZdBP-2" value="get_season(month)" style="rounded=1;whiteSpace=wrap;html=1;absoluteArcSize=1;arcSize=14;strokeWidth=2;" vertex="1" parent="WIyWlLk6GJQsqaUBKTNV-1">
          <mxGeometry x="25" y="370" width="130" height="40" as="geometry" />
        </mxCell>
        <mxCell id="VcwYlTKN-XmlWoADZdBP-3" value="Month" style="strokeWidth=2;html=1;shape=mxgraph.flowchart.decision;whiteSpace=wrap;" vertex="1" parent="WIyWlLk6GJQsqaUBKTNV-1">
          <mxGeometry x="300" y="180" width="100" height="100" as="geometry" />
        </mxCell>
        <mxCell id="VcwYlTKN-XmlWoADZdBP-4" value="season" style="strokeWidth=2;html=1;shape=mxgraph.flowchart.decision;whiteSpace=wrap;" vertex="1" parent="WIyWlLk6GJQsqaUBKTNV-1">
          <mxGeometry x="300" y="340" width="100" height="100" as="geometry" />
        </mxCell>
        <mxCell id="VcwYlTKN-XmlWoADZdBP-12" style="edgeStyle=orthogonalEdgeStyle;rounded=0;orthogonalLoop=1;jettySize=auto;html=1;entryX=0.5;entryY=0;entryDx=0;entryDy=0;" edge="1" parent="WIyWlLk6GJQsqaUBKTNV-1" source="VcwYlTKN-XmlWoADZdBP-5" target="VcwYlTKN-XmlWoADZdBP-7">
          <mxGeometry relative="1" as="geometry" />
        </mxCell>
        <mxCell id="VcwYlTKN-XmlWoADZdBP-5" value="get_month_name(month)" style="rounded=1;whiteSpace=wrap;html=1;absoluteArcSize=1;arcSize=14;strokeWidth=2;" vertex="1" parent="WIyWlLk6GJQsqaUBKTNV-1">
          <mxGeometry x="25" y="490" width="150" height="60" as="geometry" />
        </mxCell>
        <mxCell id="VcwYlTKN-XmlWoADZdBP-6" value="month_name" style="strokeWidth=2;html=1;shape=mxgraph.flowchart.decision;whiteSpace=wrap;" vertex="1" parent="WIyWlLk6GJQsqaUBKTNV-1">
          <mxGeometry x="300" y="470" width="100" height="100" as="geometry" />
        </mxCell>
        <mxCell id="VcwYlTKN-XmlWoADZdBP-7" value="&lt;p&gt;&lt;font face=&quot;Helvetica&quot; style=&quot;font-size: 12px;&quot;&gt;The month is {month_name} and the current season is {season},&lt;/font&gt;&lt;/p&gt;" style="shape=parallelogram;html=1;strokeWidth=2;perimeter=parallelogramPerimeter;whiteSpace=wrap;rounded=1;arcSize=11;size=0.13043478260869565;" vertex="1" parent="WIyWlLk6GJQsqaUBKTNV-1">
          <mxGeometry x="-15" y="600" width="230" height="110" as="geometry" />
        </mxCell>
        <mxCell id="VcwYlTKN-XmlWoADZdBP-8" value="End" style="strokeWidth=2;html=1;shape=mxgraph.flowchart.terminator;whiteSpace=wrap;" vertex="1" parent="WIyWlLk6GJQsqaUBKTNV-1">
          <mxGeometry x="50" y="800" width="100" height="60" as="geometry" />
        </mxCell>
        <mxCell id="VcwYlTKN-XmlWoADZdBP-9" style="edgeStyle=orthogonalEdgeStyle;rounded=0;orthogonalLoop=1;jettySize=auto;html=1;entryX=0.55;entryY=0.055;entryDx=0;entryDy=0;entryPerimeter=0;" edge="1" parent="WIyWlLk6GJQsqaUBKTNV-1" source="VcwYlTKN-XmlWoADZdBP-0" target="VcwYlTKN-XmlWoADZdBP-1">
          <mxGeometry relative="1" as="geometry" />
        </mxCell>
        <mxCell id="VcwYlTKN-XmlWoADZdBP-11" style="edgeStyle=orthogonalEdgeStyle;rounded=0;orthogonalLoop=1;jettySize=auto;html=1;entryX=0.436;entryY=0.067;entryDx=0;entryDy=0;entryPerimeter=0;" edge="1" parent="WIyWlLk6GJQsqaUBKTNV-1" source="VcwYlTKN-XmlWoADZdBP-2" target="VcwYlTKN-XmlWoADZdBP-5">
          <mxGeometry relative="1" as="geometry" />
        </mxCell>
        <mxCell id="VcwYlTKN-XmlWoADZdBP-13" style="edgeStyle=orthogonalEdgeStyle;rounded=0;orthogonalLoop=1;jettySize=auto;html=1;entryX=0;entryY=0.5;entryDx=0;entryDy=0;entryPerimeter=0;" edge="1" parent="WIyWlLk6GJQsqaUBKTNV-1" source="VcwYlTKN-XmlWoADZdBP-1" target="VcwYlTKN-XmlWoADZdBP-3">
          <mxGeometry relative="1" as="geometry" />
        </mxCell>
        <mxCell id="VcwYlTKN-XmlWoADZdBP-14" style="edgeStyle=orthogonalEdgeStyle;rounded=0;orthogonalLoop=1;jettySize=auto;html=1;entryX=0;entryY=0.5;entryDx=0;entryDy=0;entryPerimeter=0;" edge="1" parent="WIyWlLk6GJQsqaUBKTNV-1" source="VcwYlTKN-XmlWoADZdBP-2" target="VcwYlTKN-XmlWoADZdBP-4">
          <mxGeometry relative="1" as="geometry" />
        </mxCell>
        <mxCell id="VcwYlTKN-XmlWoADZdBP-16" style="edgeStyle=orthogonalEdgeStyle;rounded=0;orthogonalLoop=1;jettySize=auto;html=1;entryX=0;entryY=0.5;entryDx=0;entryDy=0;entryPerimeter=0;" edge="1" parent="WIyWlLk6GJQsqaUBKTNV-1" source="VcwYlTKN-XmlWoADZdBP-5" target="VcwYlTKN-XmlWoADZdBP-6">
          <mxGeometry relative="1" as="geometry" />
        </mxCell>
        <mxCell id="VcwYlTKN-XmlWoADZdBP-17" style="edgeStyle=orthogonalEdgeStyle;rounded=0;orthogonalLoop=1;jettySize=auto;html=1;entryX=0.5;entryY=0;entryDx=0;entryDy=0;entryPerimeter=0;" edge="1" parent="WIyWlLk6GJQsqaUBKTNV-1" source="VcwYlTKN-XmlWoADZdBP-7" target="VcwYlTKN-XmlWoADZdBP-8">
          <mxGeometry relative="1" as="geometry" />
        </mxCell>
      </root>
    </mxGraphModel>
  </diagram>
</mxfile>
